PathFileType  4	(X/Y/Z) C:\Users\antoi\Documents\MyRepositories\mobilecap\ResultsAnalysis
DataRate	CameraRate	NumFrames	NumMarkers	Units	OrigDataRate	OrigDataStartFrame	OrigNumFrames
100.0	100.0	4	51	mm	100.0	156	248
Frame#	Time	r_knee			r_shank_antsup			r_ankle			r_calc			r_5meta			r_toe			L_knee			L_shank_antsup			L_ankle			L_calc			L_5meta			L_toe			r_sh2			r_sh3			r_sh4			L_sh2			L_sh3			r_thigh1			r_thigh2			r_thigh3			r_thigh4			r_thigh5			L_thigh1			L_thigh2			L_thigh3			L_thigh4			r.ASIS			r.PSIS			L.ASIS			L.PSIS			C7			R_Shoulder			L_Shoulder			R_Sternum			L_Sternum			R_humerus			R_elbow_med			R_elbow_lat			R_forearm			R_wrist_radius			R_wrist_ulna			L_humerus			L_elbow_med			L_elbow_lat			L_forearm			L_wrist_radius			L_wrist_ulna			R_HJC			L_HJC			R_HJC_reg			L_HJC_reg			
		X1	Y1	Z1	X2	Y2	Z2	X3	Y3	Z3	X4	Y4	Z4	X5	Y5	Z5	X6	Y6	Z6	X7	Y7	Z7	X8	Y8	Z8	X9	Y9	Z9	X10	Y10	Z10	X11	Y11	Z11	X12	Y12	Z12	X13	Y13	Z13	X14	Y14	Z14	X15	Y15	Z15	X16	Y16	Z16	X17	Y17	Z17	X18	Y18	Z18	X19	Y19	Z19	X20	Y20	Z20	X21	Y21	Z21	X22	Y22	Z22	X23	Y23	Z23	X24	Y24	Z24	X25	Y25	Z25	X26	Y26	Z26	X27	Y27	Z27	X28	Y28	Z28	X29	Y29	Z29	X30	Y30	Z30	X31	Y31	Z31	X32	Y32	Z32	X33	Y33	Z33	X34	Y34	Z34	X35	Y35	Z35	X36	Y36	Z36	X37	Y37	Z37	X38	Y38	Z38	X39	Y39	Z39	X40	Y40	Z40	X41	Y41	Z41	X42	Y42	Z42	X43	Y43	Z43	X44	Y44	Z44	X45	Y45	Z45	X46	Y46	Z46	X47	Y47	Z47	X48	Y48	Z48	X49	Y49	Z49	X50	Y50	Z50	X51	Y51	Z51	

156	1.55000000	-19.06037	469.48727	-454.95435	-12.78447	345.12744	-467.01989	-258.93908	112.69876	-460.59599	-338.38458	82.85045	-509.21382	-151.45271	39.16520	-404.99174	-102.85102	56.91259	-475.22408	-63.53730	458.78356	-866.24702	-37.18742	348.41953	-845.70686	-286.44288	101.43246	-810.89500	-358.00836	77.58014	-746.11094	-175.09453	35.40697	-857.85314	-127.06749	55.72098	-792.91915	-70.70542	248.08546	-487.84598	-69.75266	366.77026	-418.57031	-122.51957	261.81765	-424.09546	-109.78307	383.64524	-882.98216	-150.47957	270.24057	-884.83797	-156.74698	680.38508	-487.49863	-59.37185	624.96834	-493.73274	-48.38228	592.39295	-438.56792	-189.55729	614.69144	-399.17411	-86.35226	552.08256	-417.92927	-220.04628	661.36769	-844.02762	-97.43770	596.95053	-857.29267	-271.88446	569.19206	-882.59454	-151.59175	504.71897	-891.80032	-299.10008	750.11891	-510.90887	-443.22049	831.68006	-579.23103	-299.69398	711.79092	-765.91928	-453.43600	827.28071	-680.01688	-55.71360	1151.44741	-671.71038	-9.09912	1061.22106	-498.34478	1.63165	1063.27131	-819.78582	28.16480	1009.03710	-641.42752	24.75887	1006.59119	-684.73242	9.23483	936.68666	-394.64433	-38.53002	709.20780	-332.39207	-1.73634	763.75199	-275.35633	147.77552	707.33816	-356.94042	235.76299	656.11083	-397.51337	250.08762	648.33962	-357.91772	55.33412	939.91416	-910.17196	85.63540	705.99126	-913.90607	116.96623	754.29802	-969.96281	258.21105	756.96993	-871.54640	360.93239	737.92376	-842.76293	375.59167	712.84398	-881.99447	-387.30025	693.87577	-525.99129	-402.06260	660.85286	-736.29078	-380.91158	688.02086	-535.31493	-398.06206	680.63646	-704.48727	
157	1.56000000	-16.98104	471.65158	-457.93559	-11.03616	346.65358	-469.50799	-257.81816	114.61102	-460.98415	-337.35666	85.38265	-509.55150	-151.06639	39.74904	-405.22162	-102.28870	56.97034	-475.59125	-61.24286	459.62656	-865.09885	-35.35717	349.02306	-844.22827	-285.88118	103.21026	-810.07009	-357.09698	79.45537	-745.28483	-175.04130	35.56515	-857.50771	-126.63773	55.71984	-792.86885	-69.11073	249.37590	-489.74147	-67.96196	368.45251	-421.38633	-120.91684	263.73202	-425.79593	-108.02070	384.59849	-882.17006	-149.05378	271.21428	-883.70369	-151.24335	684.06358	-489.95187	-55.25578	625.69739	-496.35223	-45.26095	590.94330	-441.50629	-185.01196	618.95156	-401.71390	-83.15665	554.96551	-419.98698	-214.85333	665.30687	-844.72757	-93.41363	599.00768	-857.16735	-267.90682	573.54388	-882.58587	-148.66285	507.08483	-890.96905	-291.88723	757.90740	-512.23068	-441.72922	838.60406	-580.19817	-294.09196	720.46667	-767.42765	-452.16788	834.02718	-680.56756	-63.34897	1169.58046	-672.55748	-11.61590	1084.77530	-500.33985	-0.75653	1087.74707	-818.19301	25.23971	1030.34403	-641.89253	22.29643	1027.61087	-685.18731	22.30997	966.98892	-396.91659	4.26780	736.78525	-329.41220	36.23304	796.87841	-274.56849	188.22861	765.21053	-364.26674	279.57058	728.50116	-410.25850	297.12685	722.55704	-371.32266	67.11503	973.69006	-906.08472	121.63707	743.95312	-910.75819	150.56417	796.40286	-965.24426	283.00800	819.91021	-857.45348	384.99177	817.12352	-821.85308	405.85639	795.02049	-859.82584	-380.87566	700.96363	-527.13720	-396.32188	668.02503	-737.41275	-373.93916	694.94537	-536.38503	-391.52889	687.23362	-705.52571	
158	1.57000000	-15.00325	473.82039	-461.03179	-9.55108	348.42488	-471.96157	-256.63004	116.58112	-461.10612	-336.30908	88.04790	-509.59339	-150.62809	40.16278	-405.54027	-101.77444	56.99942	-475.77529	-59.49423	460.99013	-864.32437	-34.04976	349.75092	-842.16844	-285.23844	105.11694	-809.20025	-356.16225	81.69074	-744.69982	-174.96835	35.75346	-857.26290	-126.25967	55.72231	-792.72604	-67.54881	251.06287	-491.29636	-66.33290	370.48472	-423.86231	-119.25696	265.67012	-427.50478	-106.75063	385.94754	-881.38657	-148.02407	272.65550	-882.78080	-145.65001	688.88641	-491.89685	-51.32630	627.49443	-499.91593	-42.04750	591.60788	-444.21724	-180.51358	623.88350	-404.20810	-79.97498	558.45042	-422.13351	-209.74952	669.98305	-845.77946	-89.68792	601.74765	-857.41366	-264.25716	578.60739	-882.65626	-146.21612	510.18043	-890.59075	-284.47845	767.27114	-511.05783	-440.07454	846.40940	-580.93111	-284.77467	729.67833	-766.12320	-450.39583	841.82610	-681.10654	-70.43630	1188.26729	-673.12627	-13.87137	1109.60391	-502.23643	-2.70502	1113.33071	-816.31608	22.67562	1052.14734	-641.89031	19.99112	1049.17845	-685.36014	34.51742	1000.91328	-399.33661	47.60492	771.73671	-327.45167	73.46400	836.91609	-274.71166	223.19400	828.74416	-372.50974	315.73308	807.04304	-423.43492	336.15539	803.58728	-384.75429	78.23374	1010.13954	-901.39850	156.00491	787.24221	-907.94105	181.80262	844.20735	-960.69105	302.15894	886.37880	-843.99590	400.38005	899.08130	-801.97919	426.82504	881.14349	-838.52188	-374.34294	709.46426	-526.73940	-387.62647	675.74529	-737.02550	-365.46420	702.64160	-535.19902	-382.88484	694.90521	-704.29188	
159	1.58000000	-13.40450	476.49375	-463.91964	-8.37612	350.65641	-474.30969	-255.41553	118.58621	-460.94337	-335.32909	90.83939	-509.30759	-150.20699	40.46139	-405.81246	-101.27660	56.99838	-475.79463	-58.41714	462.90990	-863.70283	-33.33700	351.24721	-841.11695	-284.51603	107.08973	-808.51457	-355.27630	84.26103	-744.29761	-174.87111	35.90326	-857.09123	-125.90127	55.70436	-792.48221	-66.18523	252.96720	-492.66452	-64.95778	372.74852	-425.95977	-117.62305	267.75693	-429.08290	-106.17715	387.89503	-880.60409	-147.50519	274.68090	-882.18895	-140.08304	694.30489	-494.06494	-47.43222	630.54710	-503.25897	-38.44735	595.00163	-446.69204	-175.93696	629.20354	-406.90661	-77.06112	562.42180	-424.72465	-204.84307	675.42668	-846.98136	-86.26550	604.80535	-857.93218	-261.12078	584.52244	-882.52934	-144.44441	513.96064	-890.39046	-277.08087	776.72097	-511.00985	-437.97845	855.42386	-581.51999	-276.99998	740.17563	-766.25179	-448.15842	851.01141	-681.44114	-76.76632	1207.63428	-673.57974	-15.69397	1135.54612	-504.45390	-3.91949	1139.70472	-813.74806	20.33966	1074.39224	-641.72808	17.95825	1071.30788	-685.11738	45.79139	1038.36453	-402.26495	89.80225	814.12911	-326.51157	108.72798	883.85438	-275.75569	252.47725	897.23042	-381.33778	343.87562	890.54226	-436.17250	366.44417	890.12003	-398.26652	88.24004	1048.74723	-896.49665	189.13113	835.64542	-905.14065	210.51745	897.30769	-956.72731	315.76500	955.25785	-831.81100	407.26224	982.55618	-783.61348	438.60462	969.46436	-818.21854	-368.03152	718.54059	-527.25443	-380.44205	685.15825	-737.65285	-357.99072	711.34045	-535.34585	-375.22299	703.87100	-704.48510	
